<svg width="34" height="34" viewBox="0 0 34 34" fill="none" xmlns="http://www.w3.org/2000/svg">
<path d="M15.5955 24.1304C16.0818 24.6205 16.8732 24.6236 17.3633 24.1373C17.8533 23.6511 17.8564 22.8596 17.3701 22.3696L15.5955 24.1304ZM10.2812 17L9.39393 16.1196C8.91036 16.6069 8.91036 17.3931 9.39393 17.8804L10.2812 17ZM17.3701 11.6304C17.8564 11.1404 17.8533 10.3489 17.3633 9.86268C16.8732 9.37643 16.0818 9.37951 15.5955 9.86956L17.3701 11.6304ZM11.143 15.75C10.4526 15.75 9.89297 16.3096 9.89297 17C9.89297 17.6904 10.4526 18.25 11.143 18.25V15.75ZM23.7188 18.25C24.4091 18.25 24.9688 17.6904 24.9688 17C24.9688 16.3096 24.4091 15.75 23.7188 15.75V18.25ZM17.3701 22.3696L11.1686 16.1196L9.39393 17.8804L15.5955 24.1304L17.3701 22.3696ZM11.1686 17.8804L17.3701 11.6304L15.5955 9.86956L9.39393 16.1196L11.1686 17.8804ZM11.143 18.25H23.7188V15.75H11.143V18.25ZM33.25 17C33.25 8.02839 25.9716 0.75 17 0.75V3.25C24.5909 3.25 30.75 9.40911 30.75 17H33.25ZM17 0.75C8.02839 0.75 0.75 8.02839 0.75 17H3.25C3.25 9.40911 9.40911 3.25 17 3.25V0.75ZM0.75 17C0.75 25.9716 8.02839 33.25 17 33.25V30.75C9.40911 30.75 3.25 24.5909 3.25 17H0.75ZM17 33.25C25.9716 33.25 33.25 25.9716 33.25 17H30.75C30.75 24.5909 24.5909 30.75 17 30.75V33.25Z" fill="#0A1640"/>
</svg>
