<?xml version="1.0" standalone="no"?>
<!DOCTYPE svg PUBLIC "-//W3C//DTD SVG 20010904//EN"
 "http://www.w3.org/TR/2001/REC-SVG-20010904/DTD/svg10.dtd">
<svg version="1.0" xmlns="http://www.w3.org/2000/svg"
 width="512.000000pt" height="512.000000pt" viewBox="0 0 512.000000 512.000000"
 preserveAspectRatio="xMidYMid meet">

<g transform="translate(0.000000,512.000000) scale(0.100000,-0.100000)"
fill="#000000" stroke="none">
<path d="M815 4301 c-224 -56 -383 -202 -462 -426 l-28 -80 0 -1220 c0 -1153
1 -1224 18 -1285 28 -99 85 -197 158 -275 78 -81 162 -135 274 -173 l80 -27
1700 0 c1619 0 1703 1 1765 18 214 61 382 219 453 427 l22 65 3 1215 c3 1103
1 1221 -14 1285 -44 185 -167 341 -337 425 -150 74 -32 70 -1892 69 -1554 0
-1675 -2 -1740 -18z m475 -307 c0 -3 -63 -111 -141 -240 l-140 -234 -186 0
-185 0 4 118 c5 137 24 191 91 260 84 87 133 100 370 101 103 1 187 -2 187 -5z
m1220 0 c0 -3 -63 -111 -141 -240 l-140 -234 -424 0 -424 0 130 218 c72 119
137 227 145 240 l14 22 420 0 c231 0 420 -3 420 -6z m1137 -231 l-143 -238
-447 -3 c-246 -1 -447 1 -447 4 0 3 63 111 141 240 l140 234 449 0 449 0 -142
-237z m660 201 c65 -31 126 -100 153 -170 16 -43 20 -79 20 -164 l0 -110 -301
0 c-165 0 -299 4 -297 9 2 4 66 113 142 241 l140 232 45 -6 c26 -3 69 -18 98
-32z m171 -1681 l-3 -918 -24 -47 c-27 -56 -91 -122 -142 -148 -20 -11 -65
-24 -100 -30 -45 -8 -547 -10 -1689 -8 l-1625 3 -67 33 c-88 43 -142 104 -168
190 -19 62 -20 93 -20 953 l0 889 1920 0 1920 0 -2 -917z"/>
<path d="M2234 2890 c-89 -18 -176 -78 -227 -156 -54 -82 -58 -123 -55 -591 3
-421 3 -429 26 -486 30 -73 104 -149 179 -185 77 -36 203 -38 274 -6 73 34
661 420 703 461 63 63 89 125 94 223 5 104 -18 174 -78 243 -43 48 -650 450
-725 479 -53 21 -139 29 -191 18z m373 -507 c247 -160 303 -200 301 -216 -4
-30 -597 -413 -618 -399 -13 8 -15 62 -18 397 -2 371 1 415 26 415 3 0 142
-89 309 -197z"/>
</g>
</svg>
