<?xml version="1.0" standalone="no"?>
<!DOCTYPE svg PUBLIC "-//W3C//DTD SVG 20010904//EN"
 "http://www.w3.org/TR/2001/REC-SVG-20010904/DTD/svg10.dtd">
<svg version="1.0" xmlns="http://www.w3.org/2000/svg"
 width="512.000000pt" height="512.000000pt" viewBox="0 0 512.000000 512.000000"
 preserveAspectRatio="xMidYMid meet">

<g transform="translate(0.000000,512.000000) scale(0.100000,-0.100000)"
fill="#000000" stroke="none">
<path d="M2737 5105 c-232 -39 -434 -143 -602 -309 -180 -179 -285 -397 -316
-657 -11 -92 -14 -100 -21 -69 -46 186 -170 370 -331 492 -436 329 -1050 210
-1337 -261 -74 -121 -130 -317 -130 -458 0 -88 22 -221 50 -303 44 -126 94
-211 193 -323 l59 -68 -62 -62 c-123 -123 -206 -287 -230 -452 -8 -57 -10
-357 -8 -1025 l3 -945 28 -90 c80 -259 283 -462 542 -542 l90 -28 1340 0 1340
0 90 28 c316 98 544 379 572 703 l6 71 386 -230 c414 -247 470 -277 515 -277
85 0 173 64 195 142 9 30 11 124 9 308 -3 259 -4 266 -27 303 -13 21 -42 50
-64 65 -34 23 -52 27 -107 27 -55 0 -73 -4 -107 -27 -64 -42 -86 -87 -91 -183
l-4 -82 -387 230 c-414 247 -470 277 -515 277 -75 0 -161 -54 -189 -119 -7
-16 -14 -124 -17 -276 -6 -228 -8 -255 -29 -308 -43 -110 -132 -195 -245 -234
-48 -17 -125 -18 -1331 -18 -1206 0 -1283 1 -1331 18 -113 39 -201 123 -246
234 l-23 58 0 945 0 945 23 58 c45 111 133 195 246 234 48 17 125 18 1331 18
1206 0 1283 -1 1331 -18 113 -39 202 -124 245 -234 21 -53 23 -80 29 -303 3
-148 10 -255 17 -271 28 -65 114 -119 189 -119 46 0 104 32 512 279 210 127
384 231 387 231 2 0 5 -134 7 -297 3 -294 3 -299 27 -336 13 -21 42 -50 64
-65 34 -22 52 -27 106 -27 79 0 128 25 169 88 l27 41 3 485 c2 352 0 498 -9
529 -22 78 -110 142 -195 142 -46 0 -104 -32 -512 -279 -210 -127 -384 -231
-386 -231 -2 0 -7 30 -11 67 -14 135 -65 273 -140 378 -44 62 -149 168 -198
200 l-28 18 54 56 c303 318 395 758 243 1163 -111 295 -366 542 -664 644 -176
60 -365 77 -535 49z m311 -401 c44 -8 118 -35 172 -61 81 -39 108 -58 182
-133 72 -72 94 -103 131 -181 102 -209 102 -409 0 -618 -37 -78 -59 -109 -131
-181 -74 -75 -101 -94 -182 -133 -211 -102 -409 -102 -620 0 -81 39 -108 58
-182 133 -72 72 -94 103 -131 181 -50 102 -77 212 -77 309 0 97 27 207 77 309
37 78 59 109 131 181 74 74 101 94 182 133 153 74 292 93 448 61z m-2037 -364
c92 -17 193 -73 265 -144 203 -203 203 -519 0 -722 -203 -203 -519 -203 -722
0 -203 203 -203 519 0 722 123 123 289 175 457 144z m886 -745 c27 -64 84
-166 129 -227 l36 -48 -196 0 -195 0 33 58 c61 102 105 235 121 362 l7 54 23
-74 c12 -41 31 -97 42 -125z"/>
<path d="M932 2509 c-48 -14 -109 -80 -123 -131 -23 -89 12 -182 88 -229 57
-36 154 -34 210 3 62 41 88 90 88 168 0 77 -26 127 -85 166 -43 29 -125 39
-178 23z"/>
</g>
</svg>
