<?xml version="1.0" standalone="no"?>
<!DOCTYPE svg PUBLIC "-//W3C//DTD SVG 20010904//EN"
 "http://www.w3.org/TR/2001/REC-SVG-20010904/DTD/svg10.dtd">
<svg version="1.0" xmlns="http://www.w3.org/2000/svg"
 width="512.000000pt" height="512.000000pt" viewBox="0 0 512.000000 512.000000"
 preserveAspectRatio="xMidYMid meet">

<g transform="translate(0.000000,512.000000) scale(0.100000,-0.100000)"
fill="#000000" stroke="none">
<path d="M2380 5114 c-19 -2 -78 -9 -130 -14 -330 -36 -695 -160 -990 -336
-375 -224 -680 -529 -904 -904 -175 -292 -291 -632 -338 -990 -16 -123 -16
-497 0 -620 82 -623 356 -1150 820 -1581 256 -239 575 -425 922 -539 274 -91
491 -124 800 -124 228 0 329 9 530 50 689 141 1304 583 1674 1204 175 292 291
632 338 990 16 123 16 497 0 620 -47 358 -163 698 -338 990 -224 375 -529 680
-904 904 -289 173 -634 291 -980 336 -88 12 -438 21 -500 14z m381 -404 c330
-33 694 -156 943 -320 445 -291 750 -681 905 -1156 119 -364 141 -711 70
-1089 -45 -235 -167 -544 -289 -729 -291 -445 -681 -750 -1156 -905 -452 -148
-896 -148 -1348 0 -648 212 -1163 727 -1375 1375 -148 452 -148 896 0 1348
212 648 727 1163 1375 1375 293 96 586 129 875 101z"/>
<path d="M2591 4039 c-210 -64 -244 -344 -56 -454 123 -73 286 -21 350 110 27
56 26 157 -2 210 -57 108 -184 167 -292 134z"/>
<path d="M2254 3238 c-45 -8 -354 -149 -354 -162 0 -2 39 -83 86 -179 l86
-175 133 64 c143 68 150 70 188 53 56 -25 56 -27 -7 -447 -135 -894 -128 -840
-116 -922 27 -197 175 -358 371 -405 134 -31 213 -15 422 84 l147 71 -90 180
-90 180 -131 -65 c-72 -36 -141 -65 -153 -65 -29 0 -65 26 -76 55 -6 16 19
205 80 617 49 326 90 618 90 648 1 219 -168 423 -388 469 -61 13 -126 13 -198
-1z"/>
</g>
</svg>
