<svg width="20" height="20" viewBox="0 0 20 20" fill="none" xmlns="http://www.w3.org/2000/svg">
<path d="M11.5834 4.25017L13.9719 1.86163C14.1672 1.66634 14.4321 1.55664 14.7084 1.55664C14.9846 1.55664 15.2495 1.66634 15.4448 1.86163L18.1386 4.55538C18.3338 4.75072 18.4435 5.01562 18.4435 5.29183C18.4435 5.56805 18.3338 5.83295 18.1386 6.02829L15.75 8.41683M11.5834 4.25017L1.4719 14.3616C1.27653 14.5569 1.16675 14.8218 1.16669 15.0981V17.7918C1.16669 18.0681 1.27643 18.3331 1.47178 18.5284C1.66713 18.7238 1.93209 18.8335 2.20835 18.8335H4.9021C5.17835 18.8334 5.44326 18.7237 5.63856 18.5283L15.75 8.41683M11.5834 4.25017L15.75 8.41683" stroke="black" stroke-width="2" stroke-linecap="round" stroke-linejoin="round"/>
</svg>
